<svg width="72" height="56" viewBox="0 0 72 56" fill="none" xmlns="http://www.w3.org/2000/svg">
<path fill-rule="evenodd" clip-rule="evenodd" d="M34.9999 16.0002C33.1294 16.0002 31.5833 16.165 30.3932 16.3655L30.2561 16.3891C29.2226 16.562 28.3631 16.7063 27.6908 17.5331C27.2611 18.0641 27.1209 18.6382 27.0892 19.2777L26.5857 19.4455C26.112 19.6031 25.6955 19.7423 25.3671 19.8957C25.011 20.0615 24.6846 20.2743 24.4349 20.6212C24.1852 20.9671 24.086 21.3447 24.0409 21.7345C24 22.0957 24 22.5326 24 23.033V23.1814C24 23.5927 24 23.956 24.0307 24.2599C24.0634 24.5883 24.1361 24.9086 24.3172 25.2176C24.5004 25.5277 24.7439 25.7466 25.0161 25.9349C25.2668 26.1089 25.584 26.2859 25.9442 26.4854L28.6455 27.9865C29.1981 29.0722 29.9563 30.0402 30.999 30.7391C31.9066 31.3489 32.9964 31.7316 34.2867 31.8329C34.2508 31.9231 34.2324 32.0193 34.2324 32.1163V33.907H32.7692C32.3552 33.907 31.954 34.0505 31.6339 34.313C31.3138 34.5755 31.0945 34.9408 31.0133 35.3467L30.7892 36.4651H28.8604C28.6569 36.4651 28.4617 36.546 28.3178 36.6899C28.1738 36.8338 28.093 37.029 28.093 37.2326C28.093 37.4361 28.1738 37.6313 28.3178 37.7752C28.4617 37.9191 28.6569 38 28.8604 38H41.1393C41.3429 38 41.5381 37.9191 41.682 37.7752C41.8259 37.6313 41.9068 37.4361 41.9068 37.2326C41.9068 37.029 41.8259 36.8338 41.682 36.6899C41.5381 36.546 41.3429 36.4651 41.1393 36.4651H39.2105L38.9864 35.3467C38.9053 34.9408 38.686 34.5755 38.3659 34.313C38.0457 34.0505 37.6445 33.907 37.2305 33.907H35.7673V32.1163C35.7674 32.0193 35.749 31.9231 35.7131 31.8329C37.0034 31.7306 38.0931 31.3489 39.0008 30.7401C40.0445 30.0402 40.8017 29.0722 41.3542 27.9865L44.0556 26.4854C44.4158 26.2859 44.733 26.1089 44.9837 25.9349C45.2548 25.7466 45.4994 25.5277 45.6815 25.2187C45.8637 24.9086 45.9373 24.5883 45.9691 24.2599C45.9998 23.956 45.9998 23.5927 45.9998 23.1814V23.033C45.9998 22.5337 45.9998 22.0957 45.9588 21.7345C45.9138 21.3447 45.8156 20.9671 45.5649 20.6212C45.3152 20.2743 44.9888 20.0615 44.6337 19.8947C44.3032 19.7412 43.8878 19.6031 43.414 19.4455L42.9106 19.2777C42.8799 18.6371 42.7397 18.0641 42.3089 17.5331C41.6377 16.7053 40.7781 16.561 39.7447 16.3891L39.6065 16.3655C38.0838 16.1159 36.5429 15.9937 34.9999 16.0002ZM37.645 36.4651L37.4812 35.6476C37.4697 35.5896 37.4383 35.5374 37.3926 35.4999C37.3469 35.4624 37.2897 35.4419 37.2305 35.4419H32.7692C32.7101 35.4419 32.6528 35.4624 32.6071 35.4999C32.5614 35.5374 32.5301 35.5896 32.5185 35.6476L32.3548 36.4651H37.645ZM27.1086 20.8893L27.1229 20.8842C27.1966 22.4395 27.3716 24.1586 27.8095 25.7651L26.7188 25.1603C26.3207 24.9383 26.071 24.7991 25.891 24.6743C25.7252 24.5587 25.671 24.4901 25.6413 24.4389C25.6106 24.3878 25.5778 24.308 25.5574 24.1074C25.5357 23.788 25.5282 23.4677 25.5349 23.1476V23.0729C25.5349 22.5214 25.5359 22.1725 25.5656 21.9085C25.5942 21.6649 25.6392 21.5739 25.6802 21.5186C25.7201 21.4623 25.7917 21.3907 26.0137 21.2873C26.2552 21.1748 26.5868 21.0643 27.1086 20.8893ZM42.8768 20.8832C42.8042 22.4385 42.6282 24.1575 42.1912 25.764L43.281 25.1593C43.679 24.9373 43.9287 24.7981 44.1088 24.6733C44.2746 24.5576 44.3288 24.4891 44.3585 24.4379C44.3892 24.3868 44.4219 24.3069 44.4424 24.1064C44.4639 23.8874 44.4649 23.6019 44.4649 23.1466V23.0719C44.4649 22.5204 44.4639 22.1714 44.4342 21.9074C44.4055 21.6639 44.3605 21.5728 44.3196 21.5176C44.2797 21.4613 44.208 21.3897 43.986 21.2863C43.7445 21.1738 43.413 21.0622 42.8911 20.8873L42.8768 20.8832ZM30.649 17.8789C32.0872 17.6436 33.5426 17.5286 34.9999 17.5351C36.7803 17.5351 38.2405 17.6917 39.3507 17.8789C40.5858 18.0877 40.8446 18.1654 41.1179 18.5011C41.3859 18.8305 41.4115 19.1437 41.3563 20.5301C41.2642 22.8406 40.9593 25.3353 40.0158 27.2324C39.5492 28.1676 38.9394 28.933 38.1464 29.4651C37.3574 29.9941 36.3393 30.3257 34.9999 30.3257C33.6604 30.3257 32.6433 29.9941 31.8544 29.4651C31.0604 28.933 30.4505 28.1676 29.985 27.2314C29.0405 25.3353 28.7366 22.8417 28.6445 20.5291C28.5893 19.1437 28.6138 18.8305 28.8829 18.5011C29.1551 18.1654 29.414 18.0877 30.649 17.8789Z" fill="#525252"/>
<path d="M10.391 42.1525H7.9215V49H6.64V42.1525H4.165V41.08H10.391V42.1525ZM14.9183 43.39V49H14.2033C14.0456 49 13.9448 48.9248 13.9008 48.7745L13.8128 48.252C13.6954 48.3767 13.5708 48.4903 13.4388 48.593C13.3104 48.6957 13.1729 48.7837 13.0263 48.857C12.8796 48.9303 12.7219 48.9872 12.5533 49.0275C12.3883 49.0678 12.2104 49.088 12.0198 49.088C11.7118 49.088 11.4404 49.0367 11.2058 48.934C10.9711 48.8313 10.7731 48.6865 10.6118 48.4995C10.4541 48.3125 10.3349 48.0888 10.2543 47.8285C10.1736 47.5645 10.1333 47.2748 10.1333 46.9595V43.39H11.3158V46.9595C11.3158 47.3372 11.4019 47.6305 11.5743 47.8395C11.7503 48.0485 12.0161 48.153 12.3718 48.153C12.6321 48.153 12.8741 48.0943 13.0978 47.977C13.3251 47.856 13.5378 47.691 13.7358 47.482V43.39H14.9183ZM17.4708 44.4295C17.6468 44.0738 17.8595 43.7952 18.1088 43.5935C18.3581 43.3882 18.657 43.2855 19.0053 43.2855C19.1263 43.2855 19.24 43.3002 19.3463 43.3295C19.4526 43.3552 19.548 43.3955 19.6323 43.4505L19.5498 44.3415C19.5351 44.4038 19.5113 44.4478 19.4783 44.4735C19.449 44.4955 19.4086 44.5065 19.3573 44.5065C19.3023 44.5065 19.2235 44.4973 19.1208 44.479C19.0181 44.457 18.91 44.446 18.7963 44.446C18.6313 44.446 18.4846 44.4698 18.3563 44.5175C18.2316 44.5652 18.118 44.6348 18.0153 44.7265C17.9163 44.8182 17.8283 44.93 17.7513 45.062C17.6743 45.194 17.6028 45.3443 17.5368 45.513V49H16.3543V43.39H17.0418C17.1665 43.39 17.2526 43.4138 17.3003 43.4615C17.348 43.5055 17.381 43.5843 17.3993 43.698L17.4708 44.4295ZM21.5203 44.1325C21.6413 44.0078 21.766 43.896 21.8943 43.797C22.0263 43.6943 22.1657 43.6063 22.3123 43.533C22.459 43.4597 22.6148 43.4028 22.7798 43.3625C22.9448 43.3222 23.1245 43.302 23.3188 43.302C23.6268 43.302 23.8963 43.3533 24.1273 43.456C24.362 43.5587 24.5582 43.7035 24.7158 43.8905C24.8772 44.0775 24.9982 44.303 25.0788 44.567C25.1595 44.8273 25.1998 45.1152 25.1998 45.4305V49H24.0228V45.4305C24.0228 45.0528 23.9348 44.7595 23.7588 44.5505C23.5865 44.3415 23.3225 44.237 22.9668 44.237C22.7028 44.237 22.4572 44.2975 22.2298 44.4185C22.0062 44.5395 21.7953 44.7045 21.5973 44.9135V49H20.4148V43.39H21.1298C21.2912 43.39 21.3938 43.4652 21.4378 43.6155L21.5203 44.1325ZM29.5784 46.547C29.1567 46.5617 28.801 46.5965 28.5114 46.6515C28.2217 46.7028 27.987 46.7707 27.8074 46.855C27.6277 46.9357 27.4975 47.0328 27.4169 47.1465C27.3399 47.2602 27.3014 47.3848 27.3014 47.5205C27.3014 47.6525 27.3215 47.7662 27.3619 47.8615C27.4059 47.9532 27.4645 48.0302 27.5379 48.0925C27.6149 48.1512 27.7029 48.1952 27.8019 48.2245C27.9045 48.2502 28.0164 48.263 28.1374 48.263C28.4454 48.263 28.7094 48.2062 28.9294 48.0925C29.153 47.9752 29.3694 47.8065 29.5784 47.5865V46.547ZM26.4434 44.171C27.0777 43.5807 27.833 43.2855 28.7094 43.2855C29.032 43.2855 29.318 43.3387 29.5674 43.445C29.8204 43.5477 30.0312 43.6943 30.1999 43.885C30.3722 44.0757 30.5024 44.303 30.5904 44.567C30.682 44.8273 30.7279 45.117 30.7279 45.436V49H30.1999C30.0862 49 30 48.9835 29.9414 48.9505C29.8827 48.9138 29.8332 48.8423 29.7929 48.736L29.6774 48.2795C29.5344 48.4078 29.3932 48.5233 29.2539 48.626C29.1145 48.725 28.9697 48.8093 28.8194 48.879C28.6727 48.9487 28.5132 49 28.3409 49.033C28.1722 49.0697 27.9852 49.088 27.7799 49.088C27.5525 49.088 27.3399 49.0568 27.1419 48.9945C26.9475 48.9322 26.7789 48.8387 26.6359 48.714C26.4929 48.5857 26.3792 48.428 26.2949 48.241C26.2142 48.054 26.1739 47.834 26.1739 47.581C26.1739 47.3647 26.2307 47.1538 26.3444 46.9485C26.4617 46.7432 26.6524 46.5598 26.9164 46.3985C27.184 46.2335 27.5342 46.0978 27.9669 45.9915C28.4032 45.8852 28.9404 45.8247 29.5784 45.81V45.436C29.5784 45.0327 29.4922 44.732 29.3199 44.534C29.1475 44.336 28.8945 44.237 28.5609 44.237C28.3335 44.237 28.1429 44.2663 27.9889 44.325C27.8349 44.38 27.701 44.4405 27.5874 44.5065C27.4737 44.5725 27.3729 44.6348 27.2849 44.6935C27.1969 44.7485 27.1034 44.776 27.0044 44.776C26.9237 44.776 26.854 44.7558 26.7954 44.7155C26.7404 44.6715 26.6945 44.6183 26.6579 44.556L26.4434 44.171ZM32.1131 49V43.39H32.8281C32.9894 43.39 33.0921 43.4652 33.1361 43.6155L33.2131 44.105C33.3157 43.9877 33.4221 43.8813 33.5321 43.786C33.6421 43.687 33.7594 43.6027 33.8841 43.533C34.0124 43.4597 34.1481 43.4028 34.2911 43.3625C34.4377 43.3222 34.5954 43.302 34.7641 43.302C34.9437 43.302 35.1087 43.3277 35.2591 43.379C35.4094 43.4303 35.5414 43.5037 35.6551 43.599C35.7724 43.6943 35.8732 43.8098 35.9576 43.9455C36.0419 44.0812 36.1116 44.2333 36.1666 44.402C36.2509 44.2077 36.3572 44.0408 36.4856 43.9015C36.6139 43.7622 36.7569 43.6485 36.9146 43.5605C37.0722 43.4725 37.2391 43.4083 37.4151 43.368C37.5947 43.324 37.7762 43.302 37.9596 43.302C38.2602 43.302 38.5279 43.3497 38.7626 43.445C39.0009 43.5403 39.2007 43.6797 39.3621 43.863C39.5271 44.0427 39.6517 44.2645 39.7361 44.5285C39.8204 44.7925 39.8626 45.0932 39.8626 45.4305V49H38.6801V45.4305C38.6801 45.0345 38.5939 44.7375 38.4216 44.5395C38.2529 44.3378 38.0017 44.237 37.6681 44.237C37.5177 44.237 37.3766 44.2627 37.2446 44.314C37.1126 44.3653 36.9971 44.4405 36.8981 44.5395C36.7991 44.6385 36.7202 44.7632 36.6616 44.9135C36.6066 45.0602 36.5791 45.2325 36.5791 45.4305V49H35.3966V45.4305C35.3966 45.0198 35.3141 44.7192 35.1491 44.5285C34.9841 44.3342 34.7421 44.237 34.4231 44.237C34.2031 44.237 33.9996 44.2938 33.8126 44.4075C33.6256 44.5175 33.4532 44.6697 33.2956 44.864V49H32.1131ZM44.9234 45.5625C44.9234 45.3645 44.8941 45.1812 44.8354 45.0125C44.7804 44.8402 44.6979 44.6917 44.5879 44.567C44.4779 44.4387 44.3404 44.3397 44.1754 44.27C44.0141 44.1967 43.8271 44.16 43.6144 44.16C43.1854 44.16 42.8481 44.2828 42.6024 44.5285C42.3568 44.7742 42.2009 45.1188 42.1349 45.5625H44.9234ZM42.1019 46.2885C42.1166 46.6075 42.1661 46.8843 42.2504 47.119C42.3348 47.35 42.4466 47.5425 42.5859 47.6965C42.7289 47.8505 42.8976 47.966 43.0919 48.043C43.2899 48.1163 43.5099 48.153 43.7519 48.153C43.9829 48.153 44.1828 48.1273 44.3514 48.076C44.5201 48.021 44.6668 47.9623 44.7914 47.9C44.9161 47.834 45.0224 47.7753 45.1104 47.724C45.1984 47.669 45.2791 47.6415 45.3524 47.6415C45.4478 47.6415 45.5211 47.6782 45.5724 47.7515L45.9079 48.186C45.7686 48.351 45.6109 48.4903 45.4349 48.604C45.2589 48.7177 45.0719 48.8112 44.8739 48.8845C44.6759 48.9542 44.4724 49.0037 44.2634 49.033C44.0544 49.066 43.8509 49.0825 43.6529 49.0825C43.2643 49.0825 42.9031 49.0183 42.5694 48.89C42.2394 48.758 41.9516 48.5655 41.7059 48.3125C41.4639 48.0595 41.2733 47.746 41.1339 47.372C40.9983 46.998 40.9304 46.5672 40.9304 46.0795C40.9304 45.6908 40.9909 45.3278 41.1119 44.9905C41.2366 44.6532 41.4126 44.3598 41.6399 44.1105C41.8709 43.8612 42.1496 43.665 42.4759 43.522C42.8059 43.3753 43.1781 43.302 43.5924 43.302C43.9371 43.302 44.2561 43.3588 44.5494 43.4725C44.8428 43.5825 45.0958 43.7457 45.3084 43.962C45.5211 44.1783 45.6861 44.4442 45.8034 44.7595C45.9244 45.0712 45.9849 45.4268 45.9849 45.8265C45.9849 46.0098 45.9648 46.1327 45.9244 46.195C45.8841 46.2573 45.8108 46.2885 45.7044 46.2885H42.1019ZM48.1932 44.1325C48.3142 44.0078 48.4389 43.896 48.5672 43.797C48.6992 43.6943 48.8385 43.6063 48.9852 43.533C49.1319 43.4597 49.2877 43.4028 49.4527 43.3625C49.6177 43.3222 49.7974 43.302 49.9917 43.302C50.2997 43.302 50.5692 43.3533 50.8002 43.456C51.0349 43.5587 51.231 43.7035 51.3887 43.8905C51.55 44.0775 51.671 44.303 51.7517 44.567C51.8324 44.8273 51.8727 45.1152 51.8727 45.4305V49H50.6957V45.4305C50.6957 45.0528 50.6077 44.7595 50.4317 44.5505C50.2594 44.3415 49.9954 44.237 49.6397 44.237C49.3757 44.237 49.13 44.2975 48.9027 44.4185C48.679 44.5395 48.4682 44.7045 48.2702 44.9135V49H47.0877V43.39H47.8027C47.964 43.39 48.0667 43.4652 48.1107 43.6155L48.1932 44.1325ZM54.977 49.088C54.5113 49.088 54.152 48.9578 53.899 48.6975C53.6497 48.4335 53.525 48.0632 53.525 47.5865V44.3195H52.909C52.843 44.3195 52.7862 44.2993 52.7385 44.259C52.6908 44.215 52.667 44.1508 52.667 44.0665V43.588L53.5745 43.456L53.833 41.8335C53.8513 41.7712 53.8825 41.7217 53.9265 41.685C53.9705 41.6447 54.0292 41.6245 54.1025 41.6245H54.7075V43.467H56.264V44.3195H54.7075V47.504C54.7075 47.7057 54.757 47.8597 54.856 47.966C54.955 48.0723 55.087 48.1255 55.252 48.1255C55.3437 48.1255 55.4225 48.1145 55.4885 48.0925C55.5545 48.0668 55.6113 48.0412 55.659 48.0155C55.7067 47.9862 55.747 47.9605 55.78 47.9385C55.8167 47.9128 55.8515 47.9 55.8845 47.9C55.9505 47.9 56.0037 47.9367 56.044 48.01L56.396 48.5875C56.2127 48.7488 55.9963 48.8735 55.747 48.9615C55.4977 49.0458 55.241 49.088 54.977 49.088ZM60.5456 44.4075C60.5163 44.4588 60.4833 44.4955 60.4466 44.5175C60.4099 44.5395 60.3641 44.5505 60.3091 44.5505C60.2468 44.5505 60.1789 44.5322 60.1056 44.4955C60.0323 44.4552 59.9461 44.4112 59.8471 44.3635C59.7481 44.3158 59.6308 44.2737 59.4951 44.237C59.3631 44.1967 59.2073 44.1765 59.0276 44.1765C58.8809 44.1765 58.7471 44.1948 58.6261 44.2315C58.5088 44.2645 58.4079 44.314 58.3236 44.38C58.2429 44.4423 58.1806 44.5175 58.1366 44.6055C58.0926 44.6898 58.0706 44.7815 58.0706 44.8805C58.0706 45.0125 58.1109 45.1225 58.1916 45.2105C58.2723 45.2985 58.3786 45.3755 58.5106 45.4415C58.6426 45.5038 58.7929 45.5607 58.9616 45.612C59.1303 45.6633 59.3026 45.7183 59.4786 45.777C59.6546 45.8357 59.8269 45.9035 59.9956 45.9805C60.1643 46.0575 60.3146 46.1528 60.4466 46.2665C60.5786 46.3765 60.6849 46.5122 60.7656 46.6735C60.8463 46.8312 60.8866 47.0237 60.8866 47.251C60.8866 47.515 60.8389 47.7588 60.7436 47.9825C60.6483 48.2062 60.5089 48.4005 60.3256 48.5655C60.1423 48.7305 59.9131 48.8588 59.6381 48.9505C59.3668 49.0422 59.0551 49.088 58.7031 49.088C58.5088 49.088 58.3199 49.0697 58.1366 49.033C57.9569 49 57.7846 48.9542 57.6196 48.8955C57.4583 48.8332 57.3061 48.7598 57.1631 48.6755C57.0238 48.5912 56.8991 48.4995 56.7891 48.4005L57.0641 47.9495C57.0971 47.8945 57.1374 47.8523 57.1851 47.823C57.2364 47.79 57.2988 47.7735 57.3721 47.7735C57.4491 47.7735 57.5243 47.7992 57.5976 47.8505C57.6746 47.8982 57.7626 47.9513 57.8616 48.01C57.9643 48.0687 58.0871 48.1237 58.2301 48.175C58.3731 48.2227 58.5509 48.2465 58.7636 48.2465C58.9396 48.2465 59.0918 48.2263 59.2201 48.186C59.3484 48.142 59.4548 48.0833 59.5391 48.01C59.6234 47.9367 59.6858 47.8542 59.7261 47.7625C59.7664 47.6672 59.7866 47.5663 59.7866 47.46C59.7866 47.317 59.7463 47.1997 59.6656 47.108C59.5849 47.0163 59.4768 46.9375 59.3411 46.8715C59.2091 46.8055 59.0569 46.7468 58.8846 46.6955C58.7159 46.6442 58.5436 46.5892 58.3676 46.5305C58.1916 46.4718 58.0174 46.404 57.8451 46.327C57.6764 46.25 57.5243 46.1528 57.3886 46.0355C57.2566 45.9145 57.1503 45.7697 57.0696 45.601C56.9889 45.4287 56.9486 45.2197 56.9486 44.974C56.9486 44.7503 56.9926 44.5377 57.0806 44.336C57.1723 44.1343 57.3043 43.9565 57.4766 43.8025C57.6526 43.6485 57.8671 43.5275 58.1201 43.4395C58.3768 43.3478 58.6719 43.302 59.0056 43.302C59.3833 43.302 59.7261 43.3625 60.0341 43.4835C60.3421 43.6045 60.6006 43.7695 60.8096 43.9785L60.5456 44.4075Z" fill="#525252"/>
</svg>
