<svg width="72" height="56" viewBox="0 0 72 56" fill="none" xmlns="http://www.w3.org/2000/svg">
<path d="M44.1667 16H25.8333C24.8208 16 24 16.8208 24 17.8333V36.1667C24 37.1792 24.8208 38 25.8333 38H44.1667C45.1792 38 46 37.1792 46 36.1667V17.8333C46 16.8208 45.1792 16 44.1667 16Z" stroke="#525252" stroke-width="3" stroke-linejoin="round"/>
<path d="M34.9999 22.111V31.8887M30.111 26.9999H39.8887" stroke="#525252" stroke-width="3" stroke-linecap="round" stroke-linejoin="round"/>
<path d="M27.4045 47.117C27.6905 47.117 27.9417 47.0803 28.158 47.007C28.378 46.9337 28.5595 46.831 28.7025 46.699C28.8492 46.5633 28.9592 46.4002 29.0325 46.2095C29.1058 46.0188 29.1425 45.8062 29.1425 45.5715C29.1425 45.3405 29.1058 45.1333 29.0325 44.95C28.9628 44.7667 28.8565 44.6108 28.7135 44.4825C28.5705 44.3542 28.389 44.257 28.169 44.191C27.9527 44.1213 27.6978 44.0865 27.4045 44.0865H26.2275V47.117H27.4045ZM27.4045 43.08C27.9215 43.08 28.3688 43.1405 28.7465 43.2615C29.1278 43.3825 29.4413 43.553 29.687 43.773C29.9363 43.9893 30.1215 44.2515 30.2425 44.5595C30.3635 44.8638 30.424 45.2012 30.424 45.5715C30.424 45.9492 30.3598 46.2957 30.2315 46.611C30.1032 46.9227 29.9125 47.1922 29.6595 47.4195C29.4065 47.6432 29.0912 47.8192 28.7135 47.9475C28.3395 48.0722 27.9032 48.1345 27.4045 48.1345H26.2275V51H24.9405V43.08H27.4045ZM33.5806 45.302C33.9949 45.302 34.3689 45.3698 34.7026 45.5055C35.0399 45.6412 35.3259 45.8337 35.5606 46.083C35.7989 46.3323 35.9822 46.6348 36.1106 46.9905C36.2389 47.3462 36.3031 47.7458 36.3031 48.1895C36.3031 48.6332 36.2389 49.0328 36.1106 49.3885C35.9822 49.7442 35.7989 50.0485 35.5606 50.3015C35.3259 50.5508 35.0399 50.7433 34.7026 50.879C34.3689 51.0147 33.9949 51.0825 33.5806 51.0825C33.1626 51.0825 32.7849 51.0147 32.4476 50.879C32.1139 50.7433 31.8279 50.5508 31.5896 50.3015C31.3512 50.0485 31.1679 49.7442 31.0396 49.3885C30.9112 49.0328 30.8471 48.6332 30.8471 48.1895C30.8471 47.7458 30.9112 47.3462 31.0396 46.9905C31.1679 46.6348 31.3512 46.3323 31.5896 46.083C31.8279 45.8337 32.1139 45.6412 32.4476 45.5055C32.7849 45.3698 33.1626 45.302 33.5806 45.302ZM33.5806 50.1585C34.0866 50.1585 34.4624 49.9898 34.7081 49.6525C34.9574 49.3115 35.0821 48.8257 35.0821 48.195C35.0821 47.5643 34.9574 47.0785 34.7081 46.7375C34.4624 46.3928 34.0866 46.2205 33.5806 46.2205C33.0672 46.2205 32.6859 46.3928 32.4366 46.7375C32.1872 47.0785 32.0626 47.5643 32.0626 48.195C32.0626 48.8257 32.1872 49.3115 32.4366 49.6525C32.6859 49.9898 33.0672 50.1585 33.5806 50.1585ZM40.7888 46.4075C40.7594 46.4588 40.7264 46.4955 40.6898 46.5175C40.6531 46.5395 40.6073 46.5505 40.5523 46.5505C40.4899 46.5505 40.4221 46.5322 40.3488 46.4955C40.2754 46.4552 40.1893 46.4112 40.0903 46.3635C39.9913 46.3158 39.8739 46.2737 39.7383 46.237C39.6063 46.1967 39.4504 46.1765 39.2708 46.1765C39.1241 46.1765 38.9903 46.1948 38.8693 46.2315C38.7519 46.2645 38.6511 46.314 38.5668 46.38C38.4861 46.4423 38.4238 46.5175 38.3798 46.6055C38.3358 46.6898 38.3138 46.7815 38.3138 46.8805C38.3138 47.0125 38.3541 47.1225 38.4348 47.2105C38.5154 47.2985 38.6218 47.3755 38.7538 47.4415C38.8858 47.5038 39.0361 47.5607 39.2048 47.612C39.3734 47.6633 39.5458 47.7183 39.7218 47.777C39.8978 47.8357 40.0701 47.9035 40.2388 47.9805C40.4074 48.0575 40.5578 48.1528 40.6898 48.2665C40.8218 48.3765 40.9281 48.5122 41.0088 48.6735C41.0894 48.8312 41.1298 49.0237 41.1298 49.251C41.1298 49.515 41.0821 49.7588 40.9868 49.9825C40.8914 50.2062 40.7521 50.4005 40.5688 50.5655C40.3854 50.7305 40.1563 50.8588 39.8813 50.9505C39.6099 51.0422 39.2983 51.088 38.9463 51.088C38.7519 51.088 38.5631 51.0697 38.3798 51.033C38.2001 51 38.0278 50.9542 37.8628 50.8955C37.7014 50.8332 37.5493 50.7598 37.4062 50.6755C37.2669 50.5912 37.1423 50.4995 37.0323 50.4005L37.3073 49.9495C37.3403 49.8945 37.3806 49.8523 37.4283 49.823C37.4796 49.79 37.5419 49.7735 37.6153 49.7735C37.6923 49.7735 37.7674 49.7992 37.8408 49.8505C37.9178 49.8982 38.0058 49.9513 38.1048 50.01C38.2074 50.0687 38.3303 50.1237 38.4733 50.175C38.6163 50.2227 38.7941 50.2465 39.0068 50.2465C39.1828 50.2465 39.3349 50.2263 39.4633 50.186C39.5916 50.142 39.6979 50.0833 39.7823 50.01C39.8666 49.9367 39.9289 49.8542 39.9693 49.7625C40.0096 49.6672 40.0298 49.5663 40.0298 49.46C40.0298 49.317 39.9894 49.1997 39.9088 49.108C39.8281 49.0163 39.7199 48.9375 39.5843 48.8715C39.4523 48.8055 39.3001 48.7468 39.1278 48.6955C38.9591 48.6442 38.7868 48.5892 38.6108 48.5305C38.4348 48.4718 38.2606 48.404 38.0883 48.327C37.9196 48.25 37.7674 48.1528 37.6318 48.0355C37.4998 47.9145 37.3934 47.7697 37.3128 47.601C37.2321 47.4287 37.1918 47.2197 37.1918 46.974C37.1918 46.7503 37.2358 46.5377 37.3238 46.336C37.4154 46.1343 37.5474 45.9565 37.7198 45.8025C37.8958 45.6485 38.1103 45.5275 38.3633 45.4395C38.6199 45.3478 38.9151 45.302 39.2488 45.302C39.6264 45.302 39.9693 45.3625 40.2773 45.4835C40.5853 45.6045 40.8438 45.7695 41.0528 45.9785L40.7888 46.4075ZM44.0395 51.088C43.5738 51.088 43.2145 50.9578 42.9615 50.6975C42.7122 50.4335 42.5875 50.0632 42.5875 49.5865V46.3195H41.9715C41.9055 46.3195 41.8487 46.2993 41.801 46.259C41.7533 46.215 41.7295 46.1508 41.7295 46.0665V45.588L42.637 45.456L42.8955 43.8335C42.9138 43.7712 42.945 43.7217 42.989 43.685C43.033 43.6447 43.0917 43.6245 43.165 43.6245H43.77V45.467H45.3265V46.3195H43.77V49.504C43.77 49.7057 43.8195 49.8597 43.9185 49.966C44.0175 50.0723 44.1495 50.1255 44.3145 50.1255C44.4062 50.1255 44.485 50.1145 44.551 50.0925C44.617 50.0668 44.6738 50.0412 44.7215 50.0155C44.7692 49.9862 44.8095 49.9605 44.8425 49.9385C44.8792 49.9128 44.914 49.9 44.947 49.9C45.013 49.9 45.0662 49.9367 45.1065 50.01L45.4585 50.5875C45.2752 50.7488 45.0588 50.8735 44.8095 50.9615C44.5602 51.0458 44.3035 51.088 44.0395 51.088Z" fill="#525252"/>
</svg>
