<svg width="72" height="56" viewBox="0 0 72 56" fill="none" xmlns="http://www.w3.org/2000/svg">
<g clip-path="url(#clip0_54_574)">
<path d="M35.9983 16.176C35.8595 16.0624 35.6827 16 35.5 16C35.3173 16 35.1405 16.0624 35.0017 16.176L24 25.196V35.8C24 36.3835 24.2423 36.9431 24.6737 37.3557C25.105 37.7683 25.69 38 26.3 38H32.4333C32.6367 38 32.8317 37.9228 32.9754 37.7853C33.1192 37.6477 33.2 37.4612 33.2 37.2667V32.8667C33.2 32.2832 33.4423 31.7237 33.8737 31.3111C34.305 30.8985 34.89 30.6667 35.5 30.6667C36.11 30.6667 36.695 30.8985 37.1263 31.3111C37.5577 31.7237 37.8 32.2832 37.8 32.8667V37.2667C37.8 37.4612 37.8808 37.6477 38.0246 37.7853C38.1683 37.9228 38.3633 38 38.5667 38H44.7C45.31 38 45.895 37.7683 46.3263 37.3557C46.7577 36.9431 47 36.3835 47 35.8V25.196L35.9983 16.176Z" fill="#525252"/>
</g>
<path d="M26.4965 43.08V51H25.2095V47.4745H21.233V51H19.9405V43.08H21.233V46.545H25.2095V43.08H26.4965ZM30.4175 45.302C30.8318 45.302 31.2058 45.3698 31.5395 45.5055C31.8768 45.6412 32.1628 45.8337 32.3975 46.083C32.6358 46.3323 32.8192 46.6348 32.9475 46.9905C33.0758 47.3462 33.14 47.7458 33.14 48.1895C33.14 48.6332 33.0758 49.0328 32.9475 49.3885C32.8192 49.7442 32.6358 50.0485 32.3975 50.3015C32.1628 50.5508 31.8768 50.7433 31.5395 50.879C31.2058 51.0147 30.8318 51.0825 30.4175 51.0825C29.9995 51.0825 29.6218 51.0147 29.2845 50.879C28.9508 50.7433 28.6648 50.5508 28.4265 50.3015C28.1882 50.0485 28.0048 49.7442 27.8765 49.3885C27.7482 49.0328 27.684 48.6332 27.684 48.1895C27.684 47.7458 27.7482 47.3462 27.8765 46.9905C28.0048 46.6348 28.1882 46.3323 28.4265 46.083C28.6648 45.8337 28.9508 45.6412 29.2845 45.5055C29.6218 45.3698 29.9995 45.302 30.4175 45.302ZM30.4175 50.1585C30.9235 50.1585 31.2993 49.9898 31.545 49.6525C31.7943 49.3115 31.919 48.8257 31.919 48.195C31.919 47.5643 31.7943 47.0785 31.545 46.7375C31.2993 46.3928 30.9235 46.2205 30.4175 46.2205C29.9042 46.2205 29.5228 46.3928 29.2735 46.7375C29.0242 47.0785 28.8995 47.5643 28.8995 48.195C28.8995 48.8257 29.0242 49.3115 29.2735 49.6525C29.5228 49.9898 29.9042 50.1585 30.4175 50.1585ZM34.2762 51V45.39H34.9912C35.1525 45.39 35.2552 45.4652 35.2992 45.6155L35.3762 46.105C35.4788 45.9877 35.5852 45.8813 35.6952 45.786C35.8052 45.687 35.9225 45.6027 36.0472 45.533C36.1755 45.4597 36.3112 45.4028 36.4542 45.3625C36.6008 45.3222 36.7585 45.302 36.9272 45.302C37.1068 45.302 37.2718 45.3277 37.4222 45.379C37.5725 45.4303 37.7045 45.5037 37.8182 45.599C37.9355 45.6943 38.0363 45.8098 38.1207 45.9455C38.205 46.0812 38.2747 46.2333 38.3297 46.402C38.414 46.2077 38.5203 46.0408 38.6487 45.9015C38.777 45.7622 38.92 45.6485 39.0777 45.5605C39.2353 45.4725 39.4022 45.4083 39.5782 45.368C39.7578 45.324 39.9393 45.302 40.1227 45.302C40.4233 45.302 40.691 45.3497 40.9257 45.445C41.164 45.5403 41.3638 45.6797 41.5252 45.863C41.6902 46.0427 41.8148 46.2645 41.8992 46.5285C41.9835 46.7925 42.0257 47.0932 42.0257 47.4305V51H40.8432V47.4305C40.8432 47.0345 40.757 46.7375 40.5847 46.5395C40.416 46.3378 40.1648 46.237 39.8312 46.237C39.6808 46.237 39.5397 46.2627 39.4077 46.314C39.2757 46.3653 39.1602 46.4405 39.0612 46.5395C38.9622 46.6385 38.8833 46.7632 38.8247 46.9135C38.7697 47.0602 38.7422 47.2325 38.7422 47.4305V51H37.5597V47.4305C37.5597 47.0198 37.4772 46.7192 37.3122 46.5285C37.1472 46.3342 36.9052 46.237 36.5862 46.237C36.3662 46.237 36.1627 46.2938 35.9757 46.4075C35.7887 46.5175 35.6163 46.6697 35.4587 46.864V51H34.2762ZM47.0865 47.5625C47.0865 47.3645 47.0572 47.1812 46.9985 47.0125C46.9435 46.8402 46.861 46.6917 46.751 46.567C46.641 46.4387 46.5035 46.3397 46.3385 46.27C46.1772 46.1967 45.9902 46.16 45.7775 46.16C45.3485 46.16 45.0112 46.2828 44.7655 46.5285C44.5199 46.7742 44.364 47.1188 44.298 47.5625H47.0865ZM44.265 48.2885C44.2797 48.6075 44.3292 48.8843 44.4135 49.119C44.4979 49.35 44.6097 49.5425 44.749 49.6965C44.892 49.8505 45.0607 49.966 45.255 50.043C45.453 50.1163 45.673 50.153 45.915 50.153C46.146 50.153 46.3459 50.1273 46.5145 50.076C46.6832 50.021 46.8299 49.9623 46.9545 49.9C47.0792 49.834 47.1855 49.7753 47.2735 49.724C47.3615 49.669 47.4422 49.6415 47.5155 49.6415C47.6109 49.6415 47.6842 49.6782 47.7355 49.7515L48.071 50.186C47.9317 50.351 47.774 50.4903 47.598 50.604C47.422 50.7177 47.235 50.8112 47.037 50.8845C46.839 50.9542 46.6355 51.0037 46.4265 51.033C46.2175 51.066 46.014 51.0825 45.816 51.0825C45.4274 51.0825 45.0662 51.0183 44.7325 50.89C44.4025 50.758 44.1147 50.5655 43.869 50.3125C43.627 50.0595 43.4364 49.746 43.297 49.372C43.1614 48.998 43.0935 48.5672 43.0935 48.0795C43.0935 47.6908 43.154 47.3278 43.275 46.9905C43.3997 46.6532 43.5757 46.3598 43.803 46.1105C44.034 45.8612 44.3127 45.665 44.639 45.522C44.969 45.3753 45.3412 45.302 45.7555 45.302C46.1002 45.302 46.4192 45.3588 46.7125 45.4725C47.0059 45.5825 47.2589 45.7457 47.4715 45.962C47.6842 46.1783 47.8492 46.4442 47.9665 46.7595C48.0875 47.0712 48.148 47.4268 48.148 47.8265C48.148 48.0098 48.1279 48.1327 48.0875 48.195C48.0472 48.2573 47.9739 48.2885 47.8675 48.2885H44.265Z" fill="#525252"/>
<defs>
<clipPath id="clip0_54_574">
<rect width="23" height="22" fill="white" transform="translate(24 16)"/>
</clipPath>
</defs>
</svg>
