<svg width="72" height="56" viewBox="0 0 72 56" fill="none" xmlns="http://www.w3.org/2000/svg">
<path d="M35 24.8C36.167 24.8 37.2861 24.3364 38.1113 23.5113C38.9364 22.6861 39.4 21.567 39.4 20.4C39.4 19.233 38.9364 18.1139 38.1113 17.2887C37.2861 16.4636 36.167 16 35 16C33.833 16 32.7139 16.4636 31.8887 17.2887C31.0636 18.1139 30.6 19.233 30.6 20.4C30.6 21.567 31.0636 22.6861 31.8887 23.5113C32.7139 24.3364 33.833 24.8 35 24.8ZM27.85 28.1C28.5793 28.1 29.2788 27.8103 29.7945 27.2945C30.3103 26.7788 30.6 26.0793 30.6 25.35C30.6 24.6207 30.3103 23.9212 29.7945 23.4055C29.2788 22.8897 28.5793 22.6 27.85 22.6C27.1207 22.6 26.4212 22.8897 25.9055 23.4055C25.3897 23.9212 25.1 24.6207 25.1 25.35C25.1 26.0793 25.3897 26.7788 25.9055 27.2945C26.4212 27.8103 27.1207 28.1 27.85 28.1ZM44.9 25.35C44.9 26.0793 44.6103 26.7788 44.0945 27.2945C43.5788 27.8103 42.8793 28.1 42.15 28.1C41.4207 28.1 40.7212 27.8103 40.2055 27.2945C39.6897 26.7788 39.4 26.0793 39.4 25.35C39.4 24.6207 39.6897 23.9212 40.2055 23.4055C40.7212 22.8897 41.4207 22.6 42.15 22.6C42.8793 22.6 43.5788 22.8897 44.0945 23.4055C44.6103 23.9212 44.9 24.6207 44.9 25.35ZM35 25.9C36.4587 25.9 37.8576 26.4795 38.8891 27.5109C39.9205 28.5424 40.5 29.9413 40.5 31.4V38H29.5V31.4C29.5 29.9413 30.0795 28.5424 31.1109 27.5109C32.1424 26.4795 33.5413 25.9 35 25.9ZM27.3 31.4C27.3 30.6377 27.41 29.9018 27.6168 29.2066L27.4298 29.222C26.487 29.3255 25.6155 29.7734 24.9826 30.4799C24.3496 31.1863 23.9998 32.1015 24 33.05V38H27.3V31.4ZM46 38V33.05C46.0001 32.0692 45.6259 31.1253 44.9538 30.4111C44.2816 29.6968 43.3622 29.266 42.3832 29.2066C42.5889 29.9018 42.7 30.6377 42.7 31.4V38H46Z" fill="#525252"/>
<path d="M22.4045 47.117C22.6905 47.117 22.9417 47.0803 23.158 47.007C23.378 46.9337 23.5595 46.831 23.7025 46.699C23.8492 46.5633 23.9592 46.4002 24.0325 46.2095C24.1058 46.0188 24.1425 45.8062 24.1425 45.5715C24.1425 45.3405 24.1058 45.1333 24.0325 44.95C23.9628 44.7667 23.8565 44.6108 23.7135 44.4825C23.5705 44.3542 23.389 44.257 23.169 44.191C22.9527 44.1213 22.6978 44.0865 22.4045 44.0865H21.2275V47.117H22.4045ZM22.4045 43.08C22.9215 43.08 23.3688 43.1405 23.7465 43.2615C24.1278 43.3825 24.4413 43.553 24.687 43.773C24.9363 43.9893 25.1215 44.2515 25.2425 44.5595C25.3635 44.8638 25.424 45.2012 25.424 45.5715C25.424 45.9492 25.3598 46.2957 25.2315 46.611C25.1032 46.9227 24.9125 47.1922 24.6595 47.4195C24.4065 47.6432 24.0912 47.8192 23.7135 47.9475C23.3395 48.0722 22.9032 48.1345 22.4045 48.1345H21.2275V51H19.9405V43.08H22.4045ZM27.6066 42.86V51H26.4241V42.86H27.6066ZM32.0637 48.547C31.642 48.5617 31.2864 48.5965 30.9967 48.6515C30.707 48.7028 30.4724 48.7707 30.2927 48.855C30.113 48.9357 29.9829 49.0328 29.9022 49.1465C29.8252 49.2602 29.7867 49.3848 29.7867 49.5205C29.7867 49.6525 29.8069 49.7662 29.8472 49.8615C29.8912 49.9532 29.9499 50.0302 30.0232 50.0925C30.1002 50.1512 30.1882 50.1952 30.2872 50.2245C30.3899 50.2502 30.5017 50.263 30.6227 50.263C30.9307 50.263 31.1947 50.2062 31.4147 50.0925C31.6384 49.9752 31.8547 49.8065 32.0637 49.5865V48.547ZM28.9287 46.171C29.563 45.5807 30.3184 45.2855 31.1947 45.2855C31.5174 45.2855 31.8034 45.3387 32.0527 45.445C32.3057 45.5477 32.5165 45.6943 32.6852 45.885C32.8575 46.0757 32.9877 46.303 33.0757 46.567C33.1674 46.8273 33.2132 47.117 33.2132 47.436V51H32.6852C32.5715 51 32.4854 50.9835 32.4267 50.9505C32.368 50.9138 32.3185 50.8423 32.2782 50.736L32.1627 50.2795C32.0197 50.4078 31.8785 50.5233 31.7392 50.626C31.5999 50.725 31.455 50.8093 31.3047 50.879C31.158 50.9487 30.9985 51 30.8262 51.033C30.6575 51.0697 30.4705 51.088 30.2652 51.088C30.0379 51.088 29.8252 51.0568 29.6272 50.9945C29.4329 50.9322 29.2642 50.8387 29.1212 50.714C28.9782 50.5857 28.8645 50.428 28.7802 50.241C28.6995 50.054 28.6592 49.834 28.6592 49.581C28.6592 49.3647 28.716 49.1538 28.8297 48.9485C28.947 48.7432 29.1377 48.5598 29.4017 48.3985C29.6694 48.2335 30.0195 48.0978 30.4522 47.9915C30.8885 47.8852 31.4257 47.8247 32.0637 47.81V47.436C32.0637 47.0327 31.9775 46.732 31.8052 46.534C31.6329 46.336 31.3799 46.237 31.0462 46.237C30.8189 46.237 30.6282 46.2663 30.4742 46.325C30.3202 46.38 30.1864 46.4405 30.0727 46.5065C29.959 46.5725 29.8582 46.6348 29.7702 46.6935C29.6822 46.7485 29.5887 46.776 29.4897 46.776C29.409 46.776 29.3394 46.7558 29.2807 46.7155C29.2257 46.6715 29.1799 46.6183 29.1432 46.556L28.9287 46.171ZM39.4255 45.39L36.3345 52.595C36.2942 52.6793 36.2447 52.7453 36.186 52.793C36.131 52.8407 36.0449 52.8645 35.9275 52.8645H35.053L36.087 50.6205L33.799 45.39H34.8275C34.9265 45.39 35.0017 45.4138 35.053 45.4615C35.108 45.5055 35.1484 45.5587 35.174 45.621L36.5105 48.8055C36.5435 48.8972 36.5729 48.9888 36.5985 49.0805C36.6279 49.1685 36.6554 49.2602 36.681 49.3555C36.7104 49.2602 36.7397 49.1667 36.769 49.075C36.7984 48.9833 36.8314 48.8917 36.868 48.8L38.1495 45.621C38.1752 45.555 38.2174 45.5 38.276 45.456C38.3384 45.412 38.4062 45.39 38.4795 45.39H39.4255ZM43.7135 47.5625C43.7135 47.3645 43.6841 47.1812 43.6255 47.0125C43.5705 46.8402 43.488 46.6917 43.378 46.567C43.268 46.4387 43.1305 46.3397 42.9655 46.27C42.8041 46.1967 42.6171 46.16 42.4045 46.16C41.9755 46.16 41.6381 46.2828 41.3925 46.5285C41.1468 46.7742 40.991 47.1188 40.925 47.5625H43.7135ZM40.892 48.2885C40.9066 48.6075 40.9561 48.8843 41.0405 49.119C41.1248 49.35 41.2366 49.5425 41.376 49.6965C41.519 49.8505 41.6876 49.966 41.882 50.043C42.08 50.1163 42.3 50.153 42.542 50.153C42.773 50.153 42.9728 50.1273 43.1415 50.076C43.3101 50.021 43.4568 49.9623 43.5815 49.9C43.7061 49.834 43.8125 49.7753 43.9005 49.724C43.9885 49.669 44.0691 49.6415 44.1425 49.6415C44.2378 49.6415 44.3111 49.6782 44.3625 49.7515L44.698 50.186C44.5586 50.351 44.401 50.4903 44.225 50.604C44.049 50.7177 43.862 50.8112 43.664 50.8845C43.466 50.9542 43.2625 51.0037 43.0535 51.033C42.8445 51.066 42.641 51.0825 42.443 51.0825C42.0543 51.0825 41.6931 51.0183 41.3595 50.89C41.0295 50.758 40.7416 50.5655 40.496 50.3125C40.254 50.0595 40.0633 49.746 39.924 49.372C39.7883 48.998 39.7205 48.5672 39.7205 48.0795C39.7205 47.6908 39.781 47.3278 39.902 46.9905C40.0266 46.6532 40.2026 46.3598 40.43 46.1105C40.661 45.8612 40.9396 45.665 41.266 45.522C41.596 45.3753 41.9681 45.302 42.3825 45.302C42.7271 45.302 43.0461 45.3588 43.3395 45.4725C43.6328 45.5825 43.8858 45.7457 44.0985 45.962C44.3111 46.1783 44.4761 46.4442 44.5935 46.7595C44.7145 47.0712 44.775 47.4268 44.775 47.8265C44.775 48.0098 44.7548 48.1327 44.7145 48.195C44.6741 48.2573 44.6008 48.2885 44.4945 48.2885H40.892ZM46.9942 46.4295C47.1702 46.0738 47.3829 45.7952 47.6322 45.5935C47.8816 45.3882 48.1804 45.2855 48.5287 45.2855C48.6497 45.2855 48.7634 45.3002 48.8697 45.3295C48.9761 45.3552 49.0714 45.3955 49.1557 45.4505L49.0732 46.3415C49.0586 46.4038 49.0347 46.4478 49.0017 46.4735C48.9724 46.4955 48.9321 46.5065 48.8807 46.5065C48.8257 46.5065 48.7469 46.4973 48.6442 46.479C48.5416 46.457 48.4334 46.446 48.3197 46.446C48.1547 46.446 48.0081 46.4698 47.8797 46.5175C47.7551 46.5652 47.6414 46.6348 47.5387 46.7265C47.4397 46.8182 47.3517 46.93 47.2747 47.062C47.1977 47.194 47.1262 47.3443 47.0602 47.513V51H45.8777V45.39H46.5652C46.6899 45.39 46.7761 45.4138 46.8237 45.4615C46.8714 45.5055 46.9044 45.5843 46.9227 45.698L46.9942 46.4295ZM53.2555 46.4075C53.2262 46.4588 53.1932 46.4955 53.1565 46.5175C53.1199 46.5395 53.074 46.5505 53.019 46.5505C52.9567 46.5505 52.8889 46.5322 52.8155 46.4955C52.7422 46.4552 52.656 46.4112 52.557 46.3635C52.458 46.3158 52.3407 46.2737 52.205 46.237C52.073 46.1967 51.9172 46.1765 51.7375 46.1765C51.5909 46.1765 51.457 46.1948 51.336 46.2315C51.2187 46.2645 51.1179 46.314 51.0335 46.38C50.9529 46.4423 50.8905 46.5175 50.8465 46.6055C50.8025 46.6898 50.7805 46.7815 50.7805 46.8805C50.7805 47.0125 50.8209 47.1225 50.9015 47.2105C50.9822 47.2985 51.0885 47.3755 51.2205 47.4415C51.3525 47.5038 51.5029 47.5607 51.6715 47.612C51.8402 47.6633 52.0125 47.7183 52.1885 47.777C52.3645 47.8357 52.5369 47.9035 52.7055 47.9805C52.8742 48.0575 53.0245 48.1528 53.1565 48.2665C53.2885 48.3765 53.3949 48.5122 53.4755 48.6735C53.5562 48.8312 53.5965 49.0237 53.5965 49.251C53.5965 49.515 53.5489 49.7588 53.4535 49.9825C53.3582 50.2062 53.2189 50.4005 53.0355 50.5655C52.8522 50.7305 52.623 50.8588 52.348 50.9505C52.0767 51.0422 51.765 51.088 51.413 51.088C51.2187 51.088 51.0299 51.0697 50.8465 51.033C50.6669 51 50.4945 50.9542 50.3295 50.8955C50.1682 50.8332 50.016 50.7598 49.873 50.6755C49.7337 50.5912 49.609 50.4995 49.499 50.4005L49.774 49.9495C49.807 49.8945 49.8474 49.8523 49.895 49.823C49.9464 49.79 50.0087 49.7735 50.082 49.7735C50.159 49.7735 50.2342 49.7992 50.3075 49.8505C50.3845 49.8982 50.4725 49.9513 50.5715 50.01C50.6742 50.0687 50.797 50.1237 50.94 50.175C51.083 50.2227 51.2609 50.2465 51.4735 50.2465C51.6495 50.2465 51.8017 50.2263 51.93 50.186C52.0584 50.142 52.1647 50.0833 52.249 50.01C52.3334 49.9367 52.3957 49.8542 52.436 49.7625C52.4764 49.6672 52.4965 49.5663 52.4965 49.46C52.4965 49.317 52.4562 49.1997 52.3755 49.108C52.2949 49.0163 52.1867 48.9375 52.051 48.8715C51.919 48.8055 51.7669 48.7468 51.5945 48.6955C51.4259 48.6442 51.2535 48.5892 51.0775 48.5305C50.9015 48.4718 50.7274 48.404 50.555 48.327C50.3864 48.25 50.2342 48.1528 50.0985 48.0355C49.9665 47.9145 49.8602 47.7697 49.7795 47.601C49.6989 47.4287 49.6585 47.2197 49.6585 46.974C49.6585 46.7503 49.7025 46.5377 49.7905 46.336C49.8822 46.1343 50.0142 45.9565 50.1865 45.8025C50.3625 45.6485 50.577 45.5275 50.83 45.4395C51.0867 45.3478 51.3819 45.302 51.7155 45.302C52.0932 45.302 52.436 45.3625 52.744 45.4835C53.052 45.6045 53.3105 45.7695 53.5195 45.9785L53.2555 46.4075Z" fill="#525252"/>
</svg>
